<svg width="14" height="16" viewBox="0 0 14 16" fill="none" xmlns="http://www.w3.org/2000/svg">
<path d="M13.61 15.3317L12.6364 4.48908C12.6098 4.19298 12.3617 3.96617 12.0644 3.96617H10.0566V3.06064C10.0566 1.373 8.6837 0 6.99614 0C5.30865 0 3.93588 1.373 3.93588 3.06064V3.96617H1.92672C1.62947 3.96617 1.3813 4.19298 1.35473 4.48908L0.377296 15.3743C0.362901 15.535 0.416654 15.6942 0.525462 15.8132C0.63427 15.9322 0.788102 15.9999 0.949285 15.9999H13.0419C13.0424 15.9999 13.043 15.9999 13.0434 15.9999C13.3607 15.9999 13.6177 15.7428 13.6177 15.4256C13.6177 15.3937 13.6151 15.3622 13.61 15.3317ZM5.08445 3.06064C5.08445 2.00633 5.94205 1.14857 6.99621 1.14857C8.05045 1.14857 8.90813 2.00633 8.90813 3.06064V3.96617H5.08445V3.06064ZM1.57748 14.8514L2.45177 5.11475H3.93588V6.14172C3.93588 6.45888 4.19293 6.71601 4.51017 6.71601C4.8274 6.71601 5.08445 6.45888 5.08445 6.14172V5.11475H8.90813V6.14172C8.90813 6.45888 9.16518 6.71601 9.48241 6.71601C9.79965 6.71601 10.0567 6.45888 10.0567 6.14172V5.11475H11.5394L12.4137 14.8514H1.57748V14.8514Z" fill="#6B7275"/>
</svg>
