<svg width="95" height="25" viewBox="0 0 95 25" fill="none" xmlns="http://www.w3.org/2000/svg">
<g filter="url(#filter0_d_5_1042)">
<mask id="path-1-outside-1_5_1042" maskUnits="userSpaceOnUse" x="4" y="0" width="87" height="17" fill="black">
<rect fill="white" x="4" width="87" height="17"/>
<path d="M19.1073 12.9278C19.1073 13.2399 19.0516 13.5748 18.94 13.9324C18.835 14.29 18.6578 14.6216 18.4084 14.9272C18.1655 15.2328 17.8472 15.4896 17.4534 15.6977C17.0597 15.8992 16.5773 16 16.0063 16H6.28965C6.10588 16 5.93524 15.9675 5.77773 15.9025C5.62021 15.8375 5.48239 15.7497 5.36425 15.6391C5.25268 15.5221 5.16408 15.3856 5.09845 15.2295C5.03282 15.0735 5 14.9044 5 14.7224V3.29194C5 3.11638 5.03282 2.95059 5.09845 2.79454C5.16408 2.63849 5.25268 2.50195 5.36425 2.38492C5.48239 2.26788 5.62021 2.17685 5.77773 2.11183C5.93524 2.04681 6.10588 2.0143 6.28965 2.0143H14.8545C15.1695 2.0143 15.5075 2.06957 15.8685 2.1801C16.2294 2.29064 16.5641 2.46944 16.8726 2.71651C17.1876 2.95709 17.4469 3.27243 17.6503 3.66255C17.8604 4.05267 17.9654 4.53056 17.9654 5.09623V5.57412C17.9654 6.02276 17.8899 6.50715 17.7389 7.02731C17.588 7.54096 17.3452 8.02861 17.0104 8.49025C17.2992 8.6658 17.5683 8.87711 17.8177 9.12419C18.0737 9.37126 18.2968 9.65735 18.4871 9.98244C18.6775 10.3075 18.8284 10.6749 18.94 11.0845C19.0516 11.4941 19.1073 11.946 19.1073 12.4402V12.9278ZM16.5477 12.4402C16.5477 12.1086 16.4952 11.8127 16.3902 11.5527C16.2852 11.2861 16.1375 11.0585 15.9472 10.87C15.7569 10.6814 15.5272 10.5384 15.2581 10.4408C14.989 10.3368 14.6871 10.2848 14.3524 10.2848H8.58344V7.72952H13.2006C13.5353 7.72952 13.8372 7.68075 14.1063 7.58322C14.3754 7.47919 14.6051 7.3329 14.7954 7.14434C14.9857 6.95579 15.1301 6.73147 15.2286 6.47139C15.3336 6.20481 15.3861 5.90572 15.3861 5.57412V5.09623C15.3861 4.73212 15.2089 4.55007 14.8545 4.55007H7.5596V13.4642H16.0063C16.0522 13.4642 16.108 13.461 16.1736 13.4545C16.2393 13.448 16.2983 13.4285 16.3508 13.396C16.4034 13.3635 16.4493 13.3082 16.4887 13.2302C16.5281 13.1521 16.5477 13.0449 16.5477 12.9083V12.4402Z"/>
<path d="M34.522 8.94863C34.522 9.29974 34.4597 9.6801 34.335 10.0897C34.2103 10.4928 34.0068 10.87 33.7246 11.2211C33.449 11.5657 33.0847 11.855 32.6319 12.0891C32.1856 12.3231 31.6409 12.4402 30.9977 12.4402H26.3805V10.0312H30.9977C31.3455 10.0312 31.6146 9.92718 31.8049 9.71912C31.9953 9.50455 32.0904 9.24122 32.0904 8.92913C32.0904 8.59753 31.9821 8.33745 31.7656 8.14889C31.5555 7.96034 31.2996 7.86606 30.9977 7.86606H26.3805C26.0327 7.86606 25.7636 7.97334 25.5733 8.18791C25.383 8.39597 25.2878 8.65605 25.2878 8.96814V12.5085C25.2878 12.8466 25.3928 13.1099 25.6028 13.2984C25.8194 13.487 26.0852 13.5813 26.4002 13.5813H30.9977V16H26.3805C26.0261 16 25.6422 15.9382 25.2287 15.8147C24.8218 15.6912 24.4412 15.4928 24.0868 15.2198C23.7389 14.9402 23.4469 14.5793 23.2106 14.1372C22.9743 13.6886 22.8562 13.1456 22.8562 12.5085V8.94863C22.8562 8.59753 22.9185 8.22042 23.0432 7.8173C23.1679 7.40767 23.3681 7.03056 23.6437 6.68596C23.926 6.33485 24.2902 6.04226 24.7365 5.80819C25.1893 5.57412 25.7374 5.45709 26.3805 5.45709H30.9977C31.3521 5.45709 31.7327 5.51886 32.1397 5.64239C32.5531 5.76593 32.9338 5.96749 33.2816 6.24707C33.636 6.52016 33.9314 6.88101 34.1676 7.32965C34.4039 7.77178 34.522 8.31144 34.522 8.94863Z"/>
<path d="M48.5487 12.4402C48.5487 12.8758 48.4929 13.2692 48.3813 13.6203C48.2697 13.9649 48.1221 14.2705 47.9383 14.5371C47.7545 14.7971 47.5412 15.0215 47.2984 15.21C47.0556 15.3921 46.7996 15.5416 46.5305 15.6586C46.268 15.7757 45.9989 15.8635 45.7233 15.922C45.4542 15.974 45.1982 16 44.9554 16H38.0248V13.4642H44.9357C45.2835 13.4642 45.5461 13.3765 45.7233 13.2009C45.9005 13.0254 45.9891 12.7718 45.9891 12.4402C45.9562 11.764 45.6117 11.4259 44.9554 11.4259H40.988C40.4236 11.4259 39.9445 11.3283 39.5507 11.1333C39.1569 10.9382 38.8353 10.6944 38.5859 10.4018C38.3431 10.1092 38.1659 9.79389 38.0543 9.45579C37.9493 9.11769 37.8968 8.80234 37.8968 8.50975C37.8968 7.94408 37.9985 7.46944 38.202 7.08583C38.4054 6.69571 38.6614 6.38036 38.9698 6.13979C39.2783 5.89922 39.613 5.72692 39.974 5.62289C40.335 5.51235 40.673 5.45709 40.988 5.45709H47.2787V7.99285H41.0077C40.8764 7.99285 40.7714 8.0091 40.6927 8.04161C40.6205 8.06762 40.5647 8.10663 40.5253 8.15865C40.4925 8.20416 40.4728 8.25618 40.4662 8.31469C40.4597 8.36671 40.4564 8.41873 40.4564 8.47074C40.4629 8.57477 40.4826 8.65605 40.5155 8.71456C40.5483 8.77308 40.5876 8.81534 40.6336 8.84135C40.6861 8.86736 40.7419 8.88362 40.8009 8.89012C40.8666 8.89012 40.9289 8.89012 40.988 8.89012H44.9554C45.6117 8.89012 46.1695 9.00715 46.629 9.24122C47.0884 9.47529 47.4592 9.77113 47.7414 10.1287C48.0236 10.4798 48.2271 10.8635 48.3518 11.2796C48.483 11.6957 48.5487 12.0826 48.5487 12.4402Z"/>
<path d="M64.1603 16H61.6007V10.1482C61.6007 9.81664 61.5416 9.52081 61.4235 9.26073C61.3119 8.99415 61.1577 8.76658 60.9608 8.57802C60.7639 8.38947 60.5309 8.24642 60.2618 8.14889C59.9993 8.04486 59.7138 7.99285 59.4053 7.99285H54.926V16H52.3664V6.71521C52.3664 6.53966 52.3992 6.37711 52.4649 6.22757C52.5305 6.07152 52.6224 5.93823 52.7405 5.8277C52.8586 5.71066 52.9965 5.61964 53.154 5.55462C53.3115 5.4896 53.4789 5.45709 53.6561 5.45709H59.425C59.7466 5.45709 60.0846 5.49285 60.439 5.56437C60.8 5.63589 61.1544 5.75293 61.5022 5.91547C61.8566 6.07152 62.1913 6.27308 62.5064 6.52016C62.828 6.76073 63.1102 7.05657 63.353 7.40767C63.6024 7.75228 63.7993 8.15215 63.9437 8.60728C64.0881 9.06242 64.1603 9.57607 64.1603 10.1482V16Z"/>
<path d="M71.02 3.29194H68.4604V1H71.02V3.29194ZM71.02 16H68.4604V5.45709H71.02V16Z"/>
<path d="M88 16H84.3083L79.1497 11.065C78.8609 10.8049 78.7264 10.4798 78.7461 10.0897C78.7592 9.90767 78.8051 9.73862 78.8839 9.58257C78.9692 9.42003 79.0841 9.28349 79.2284 9.17295L83.9046 5.43758H88L81.9751 10.2458L88 16ZM78.0963 16H75.5367V1H78.0963V16Z"/>
</mask>
<path d="M19.1073 12.9278C19.1073 13.2399 19.0516 13.5748 18.94 13.9324C18.835 14.29 18.6578 14.6216 18.4084 14.9272C18.1655 15.2328 17.8472 15.4896 17.4534 15.6977C17.0597 15.8992 16.5773 16 16.0063 16H6.28965C6.10588 16 5.93524 15.9675 5.77773 15.9025C5.62021 15.8375 5.48239 15.7497 5.36425 15.6391C5.25268 15.5221 5.16408 15.3856 5.09845 15.2295C5.03282 15.0735 5 14.9044 5 14.7224V3.29194C5 3.11638 5.03282 2.95059 5.09845 2.79454C5.16408 2.63849 5.25268 2.50195 5.36425 2.38492C5.48239 2.26788 5.62021 2.17685 5.77773 2.11183C5.93524 2.04681 6.10588 2.0143 6.28965 2.0143H14.8545C15.1695 2.0143 15.5075 2.06957 15.8685 2.1801C16.2294 2.29064 16.5641 2.46944 16.8726 2.71651C17.1876 2.95709 17.4469 3.27243 17.6503 3.66255C17.8604 4.05267 17.9654 4.53056 17.9654 5.09623V5.57412C17.9654 6.02276 17.8899 6.50715 17.7389 7.02731C17.588 7.54096 17.3452 8.02861 17.0104 8.49025C17.2992 8.6658 17.5683 8.87711 17.8177 9.12419C18.0737 9.37126 18.2968 9.65735 18.4871 9.98244C18.6775 10.3075 18.8284 10.6749 18.94 11.0845C19.0516 11.4941 19.1073 11.946 19.1073 12.4402V12.9278ZM16.5477 12.4402C16.5477 12.1086 16.4952 11.8127 16.3902 11.5527C16.2852 11.2861 16.1375 11.0585 15.9472 10.87C15.7569 10.6814 15.5272 10.5384 15.2581 10.4408C14.989 10.3368 14.6871 10.2848 14.3524 10.2848H8.58344V7.72952H13.2006C13.5353 7.72952 13.8372 7.68075 14.1063 7.58322C14.3754 7.47919 14.6051 7.3329 14.7954 7.14434C14.9857 6.95579 15.1301 6.73147 15.2286 6.47139C15.3336 6.20481 15.3861 5.90572 15.3861 5.57412V5.09623C15.3861 4.73212 15.2089 4.55007 14.8545 4.55007H7.5596V13.4642H16.0063C16.0522 13.4642 16.108 13.461 16.1736 13.4545C16.2393 13.448 16.2983 13.4285 16.3508 13.396C16.4034 13.3635 16.4493 13.3082 16.4887 13.2302C16.5281 13.1521 16.5477 13.0449 16.5477 12.9083V12.4402Z" fill="#17181A"/>
<path d="M34.522 8.94863C34.522 9.29974 34.4597 9.6801 34.335 10.0897C34.2103 10.4928 34.0068 10.87 33.7246 11.2211C33.449 11.5657 33.0847 11.855 32.6319 12.0891C32.1856 12.3231 31.6409 12.4402 30.9977 12.4402H26.3805V10.0312H30.9977C31.3455 10.0312 31.6146 9.92718 31.8049 9.71912C31.9953 9.50455 32.0904 9.24122 32.0904 8.92913C32.0904 8.59753 31.9821 8.33745 31.7656 8.14889C31.5555 7.96034 31.2996 7.86606 30.9977 7.86606H26.3805C26.0327 7.86606 25.7636 7.97334 25.5733 8.18791C25.383 8.39597 25.2878 8.65605 25.2878 8.96814V12.5085C25.2878 12.8466 25.3928 13.1099 25.6028 13.2984C25.8194 13.487 26.0852 13.5813 26.4002 13.5813H30.9977V16H26.3805C26.0261 16 25.6422 15.9382 25.2287 15.8147C24.8218 15.6912 24.4412 15.4928 24.0868 15.2198C23.7389 14.9402 23.4469 14.5793 23.2106 14.1372C22.9743 13.6886 22.8562 13.1456 22.8562 12.5085V8.94863C22.8562 8.59753 22.9185 8.22042 23.0432 7.8173C23.1679 7.40767 23.3681 7.03056 23.6437 6.68596C23.926 6.33485 24.2902 6.04226 24.7365 5.80819C25.1893 5.57412 25.7374 5.45709 26.3805 5.45709H30.9977C31.3521 5.45709 31.7327 5.51886 32.1397 5.64239C32.5531 5.76593 32.9338 5.96749 33.2816 6.24707C33.636 6.52016 33.9314 6.88101 34.1676 7.32965C34.4039 7.77178 34.522 8.31144 34.522 8.94863Z" fill="#17181A"/>
<path d="M48.5487 12.4402C48.5487 12.8758 48.4929 13.2692 48.3813 13.6203C48.2697 13.9649 48.1221 14.2705 47.9383 14.5371C47.7545 14.7971 47.5412 15.0215 47.2984 15.21C47.0556 15.3921 46.7996 15.5416 46.5305 15.6586C46.268 15.7757 45.9989 15.8635 45.7233 15.922C45.4542 15.974 45.1982 16 44.9554 16H38.0248V13.4642H44.9357C45.2835 13.4642 45.5461 13.3765 45.7233 13.2009C45.9005 13.0254 45.9891 12.7718 45.9891 12.4402C45.9562 11.764 45.6117 11.4259 44.9554 11.4259H40.988C40.4236 11.4259 39.9445 11.3283 39.5507 11.1333C39.1569 10.9382 38.8353 10.6944 38.5859 10.4018C38.3431 10.1092 38.1659 9.79389 38.0543 9.45579C37.9493 9.11769 37.8968 8.80234 37.8968 8.50975C37.8968 7.94408 37.9985 7.46944 38.202 7.08583C38.4054 6.69571 38.6614 6.38036 38.9698 6.13979C39.2783 5.89922 39.613 5.72692 39.974 5.62289C40.335 5.51235 40.673 5.45709 40.988 5.45709H47.2787V7.99285H41.0077C40.8764 7.99285 40.7714 8.0091 40.6927 8.04161C40.6205 8.06762 40.5647 8.10663 40.5253 8.15865C40.4925 8.20416 40.4728 8.25618 40.4662 8.31469C40.4597 8.36671 40.4564 8.41873 40.4564 8.47074C40.4629 8.57477 40.4826 8.65605 40.5155 8.71456C40.5483 8.77308 40.5876 8.81534 40.6336 8.84135C40.6861 8.86736 40.7419 8.88362 40.8009 8.89012C40.8666 8.89012 40.9289 8.89012 40.988 8.89012H44.9554C45.6117 8.89012 46.1695 9.00715 46.629 9.24122C47.0884 9.47529 47.4592 9.77113 47.7414 10.1287C48.0236 10.4798 48.2271 10.8635 48.3518 11.2796C48.483 11.6957 48.5487 12.0826 48.5487 12.4402Z" fill="#17181A"/>
<path d="M64.1603 16H61.6007V10.1482C61.6007 9.81664 61.5416 9.52081 61.4235 9.26073C61.3119 8.99415 61.1577 8.76658 60.9608 8.57802C60.7639 8.38947 60.5309 8.24642 60.2618 8.14889C59.9993 8.04486 59.7138 7.99285 59.4053 7.99285H54.926V16H52.3664V6.71521C52.3664 6.53966 52.3992 6.37711 52.4649 6.22757C52.5305 6.07152 52.6224 5.93823 52.7405 5.8277C52.8586 5.71066 52.9965 5.61964 53.154 5.55462C53.3115 5.4896 53.4789 5.45709 53.6561 5.45709H59.425C59.7466 5.45709 60.0846 5.49285 60.439 5.56437C60.8 5.63589 61.1544 5.75293 61.5022 5.91547C61.8566 6.07152 62.1913 6.27308 62.5064 6.52016C62.828 6.76073 63.1102 7.05657 63.353 7.40767C63.6024 7.75228 63.7993 8.15215 63.9437 8.60728C64.0881 9.06242 64.1603 9.57607 64.1603 10.1482V16Z" fill="#17181A"/>
<path d="M71.02 3.29194H68.4604V1H71.02V3.29194ZM71.02 16H68.4604V5.45709H71.02V16Z" fill="#17181A"/>
<path d="M88 16H84.3083L79.1497 11.065C78.8609 10.8049 78.7264 10.4798 78.7461 10.0897C78.7592 9.90767 78.8051 9.73862 78.8839 9.58257C78.9692 9.42003 79.0841 9.28349 79.2284 9.17295L83.9046 5.43758H88L81.9751 10.2458L88 16ZM78.0963 16H75.5367V1H78.0963V16Z" fill="#17181A"/>
<path d="M19.1073 12.9278C19.1073 13.2399 19.0516 13.5748 18.94 13.9324C18.835 14.29 18.6578 14.6216 18.4084 14.9272C18.1655 15.2328 17.8472 15.4896 17.4534 15.6977C17.0597 15.8992 16.5773 16 16.0063 16H6.28965C6.10588 16 5.93524 15.9675 5.77773 15.9025C5.62021 15.8375 5.48239 15.7497 5.36425 15.6391C5.25268 15.5221 5.16408 15.3856 5.09845 15.2295C5.03282 15.0735 5 14.9044 5 14.7224V3.29194C5 3.11638 5.03282 2.95059 5.09845 2.79454C5.16408 2.63849 5.25268 2.50195 5.36425 2.38492C5.48239 2.26788 5.62021 2.17685 5.77773 2.11183C5.93524 2.04681 6.10588 2.0143 6.28965 2.0143H14.8545C15.1695 2.0143 15.5075 2.06957 15.8685 2.1801C16.2294 2.29064 16.5641 2.46944 16.8726 2.71651C17.1876 2.95709 17.4469 3.27243 17.6503 3.66255C17.8604 4.05267 17.9654 4.53056 17.9654 5.09623V5.57412C17.9654 6.02276 17.8899 6.50715 17.7389 7.02731C17.588 7.54096 17.3452 8.02861 17.0104 8.49025C17.2992 8.6658 17.5683 8.87711 17.8177 9.12419C18.0737 9.37126 18.2968 9.65735 18.4871 9.98244C18.6775 10.3075 18.8284 10.6749 18.94 11.0845C19.0516 11.4941 19.1073 11.946 19.1073 12.4402V12.9278ZM16.5477 12.4402C16.5477 12.1086 16.4952 11.8127 16.3902 11.5527C16.2852 11.2861 16.1375 11.0585 15.9472 10.87C15.7569 10.6814 15.5272 10.5384 15.2581 10.4408C14.989 10.3368 14.6871 10.2848 14.3524 10.2848H8.58344V7.72952H13.2006C13.5353 7.72952 13.8372 7.68075 14.1063 7.58322C14.3754 7.47919 14.6051 7.3329 14.7954 7.14434C14.9857 6.95579 15.1301 6.73147 15.2286 6.47139C15.3336 6.20481 15.3861 5.90572 15.3861 5.57412V5.09623C15.3861 4.73212 15.2089 4.55007 14.8545 4.55007H7.5596V13.4642H16.0063C16.0522 13.4642 16.108 13.461 16.1736 13.4545C16.2393 13.448 16.2983 13.4285 16.3508 13.396C16.4034 13.3635 16.4493 13.3082 16.4887 13.2302C16.5281 13.1521 16.5477 13.0449 16.5477 12.9083V12.4402Z" stroke="black" stroke-width="2" mask="url(#path-1-outside-1_5_1042)"/>
<path d="M34.522 8.94863C34.522 9.29974 34.4597 9.6801 34.335 10.0897C34.2103 10.4928 34.0068 10.87 33.7246 11.2211C33.449 11.5657 33.0847 11.855 32.6319 12.0891C32.1856 12.3231 31.6409 12.4402 30.9977 12.4402H26.3805V10.0312H30.9977C31.3455 10.0312 31.6146 9.92718 31.8049 9.71912C31.9953 9.50455 32.0904 9.24122 32.0904 8.92913C32.0904 8.59753 31.9821 8.33745 31.7656 8.14889C31.5555 7.96034 31.2996 7.86606 30.9977 7.86606H26.3805C26.0327 7.86606 25.7636 7.97334 25.5733 8.18791C25.383 8.39597 25.2878 8.65605 25.2878 8.96814V12.5085C25.2878 12.8466 25.3928 13.1099 25.6028 13.2984C25.8194 13.487 26.0852 13.5813 26.4002 13.5813H30.9977V16H26.3805C26.0261 16 25.6422 15.9382 25.2287 15.8147C24.8218 15.6912 24.4412 15.4928 24.0868 15.2198C23.7389 14.9402 23.4469 14.5793 23.2106 14.1372C22.9743 13.6886 22.8562 13.1456 22.8562 12.5085V8.94863C22.8562 8.59753 22.9185 8.22042 23.0432 7.8173C23.1679 7.40767 23.3681 7.03056 23.6437 6.68596C23.926 6.33485 24.2902 6.04226 24.7365 5.80819C25.1893 5.57412 25.7374 5.45709 26.3805 5.45709H30.9977C31.3521 5.45709 31.7327 5.51886 32.1397 5.64239C32.5531 5.76593 32.9338 5.96749 33.2816 6.24707C33.636 6.52016 33.9314 6.88101 34.1676 7.32965C34.4039 7.77178 34.522 8.31144 34.522 8.94863Z" stroke="black" stroke-width="2" mask="url(#path-1-outside-1_5_1042)"/>
<path d="M48.5487 12.4402C48.5487 12.8758 48.4929 13.2692 48.3813 13.6203C48.2697 13.9649 48.1221 14.2705 47.9383 14.5371C47.7545 14.7971 47.5412 15.0215 47.2984 15.21C47.0556 15.3921 46.7996 15.5416 46.5305 15.6586C46.268 15.7757 45.9989 15.8635 45.7233 15.922C45.4542 15.974 45.1982 16 44.9554 16H38.0248V13.4642H44.9357C45.2835 13.4642 45.5461 13.3765 45.7233 13.2009C45.9005 13.0254 45.9891 12.7718 45.9891 12.4402C45.9562 11.764 45.6117 11.4259 44.9554 11.4259H40.988C40.4236 11.4259 39.9445 11.3283 39.5507 11.1333C39.1569 10.9382 38.8353 10.6944 38.5859 10.4018C38.3431 10.1092 38.1659 9.79389 38.0543 9.45579C37.9493 9.11769 37.8968 8.80234 37.8968 8.50975C37.8968 7.94408 37.9985 7.46944 38.202 7.08583C38.4054 6.69571 38.6614 6.38036 38.9698 6.13979C39.2783 5.89922 39.613 5.72692 39.974 5.62289C40.335 5.51235 40.673 5.45709 40.988 5.45709H47.2787V7.99285H41.0077C40.8764 7.99285 40.7714 8.0091 40.6927 8.04161C40.6205 8.06762 40.5647 8.10663 40.5253 8.15865C40.4925 8.20416 40.4728 8.25618 40.4662 8.31469C40.4597 8.36671 40.4564 8.41873 40.4564 8.47074C40.4629 8.57477 40.4826 8.65605 40.5155 8.71456C40.5483 8.77308 40.5876 8.81534 40.6336 8.84135C40.6861 8.86736 40.7419 8.88362 40.8009 8.89012C40.8666 8.89012 40.9289 8.89012 40.988 8.89012H44.9554C45.6117 8.89012 46.1695 9.00715 46.629 9.24122C47.0884 9.47529 47.4592 9.77113 47.7414 10.1287C48.0236 10.4798 48.2271 10.8635 48.3518 11.2796C48.483 11.6957 48.5487 12.0826 48.5487 12.4402Z" stroke="black" stroke-width="2" mask="url(#path-1-outside-1_5_1042)"/>
<path d="M64.1603 16H61.6007V10.1482C61.6007 9.81664 61.5416 9.52081 61.4235 9.26073C61.3119 8.99415 61.1577 8.76658 60.9608 8.57802C60.7639 8.38947 60.5309 8.24642 60.2618 8.14889C59.9993 8.04486 59.7138 7.99285 59.4053 7.99285H54.926V16H52.3664V6.71521C52.3664 6.53966 52.3992 6.37711 52.4649 6.22757C52.5305 6.07152 52.6224 5.93823 52.7405 5.8277C52.8586 5.71066 52.9965 5.61964 53.154 5.55462C53.3115 5.4896 53.4789 5.45709 53.6561 5.45709H59.425C59.7466 5.45709 60.0846 5.49285 60.439 5.56437C60.8 5.63589 61.1544 5.75293 61.5022 5.91547C61.8566 6.07152 62.1913 6.27308 62.5064 6.52016C62.828 6.76073 63.1102 7.05657 63.353 7.40767C63.6024 7.75228 63.7993 8.15215 63.9437 8.60728C64.0881 9.06242 64.1603 9.57607 64.1603 10.1482V16Z" stroke="black" stroke-width="2" mask="url(#path-1-outside-1_5_1042)"/>
<path d="M71.02 3.29194H68.4604V1H71.02V3.29194ZM71.02 16H68.4604V5.45709H71.02V16Z" stroke="black" stroke-width="2" mask="url(#path-1-outside-1_5_1042)"/>
<path d="M88 16H84.3083L79.1497 11.065C78.8609 10.8049 78.7264 10.4798 78.7461 10.0897C78.7592 9.90767 78.8051 9.73862 78.8839 9.58257C78.9692 9.42003 79.0841 9.28349 79.2284 9.17295L83.9046 5.43758H88L81.9751 10.2458L88 16ZM78.0963 16H75.5367V1H78.0963V16Z" stroke="black" stroke-width="2" mask="url(#path-1-outside-1_5_1042)"/>
</g>
<defs>
<filter id="filter0_d_5_1042" x="0" y="0" width="94.8562" height="25" filterUnits="userSpaceOnUse" color-interpolation-filters="sRGB">
<feFlood flood-opacity="0" result="BackgroundImageFix"/>
<feColorMatrix in="SourceAlpha" type="matrix" values="0 0 0 0 0 0 0 0 0 0 0 0 0 0 0 0 0 0 127 0" result="hardAlpha"/>
<feOffset dy="4"/>
<feGaussianBlur stdDeviation="2"/>
<feComposite in2="hardAlpha" operator="out"/>
<feColorMatrix type="matrix" values="0 0 0 0 0 0 0 0 0 0 0 0 0 0 0 0 0 0 0.25 0"/>
<feBlend mode="normal" in2="BackgroundImageFix" result="effect1_dropShadow_5_1042"/>
<feBlend mode="normal" in="SourceGraphic" in2="effect1_dropShadow_5_1042" result="shape"/>
</filter>
</defs>
</svg>
